<svg version="1.1" id="Layer_1" xmlns="http://www.w3.org/2000/svg" xmlns:xlink="http://www.w3.org/1999/xlink" x="0px" y="0px"
	 width="100%" viewBox="0 0 2560 1707" enable-background="new 0 0 2560 1707" xml:space="preserve">
<path fill="#F67F00" opacity="1.000000" stroke="none" 
	d="
M856.000000,1710.000000 
	C571.403809,1710.000000 286.807556,1710.000000 2.105673,1710.000000 
	C2.105673,1140.878052 2.105673,571.756042 2.105673,2.000000 
	C286.051331,2.000000 570.103149,2.000000 855.077515,2.911901 
	C856.000000,572.549194 856.000000,1141.274658 856.000000,1710.000000 
z"/>
<path fill="#FFFFFF" opacity="1.000000" stroke="none" 
	d="
M858.000000,2.000000 
	C1141.380005,2.000000 1424.759888,2.000000 1709.080811,2.534194 
	C1710.161011,3.396136 1710.300537,3.723882 1710.315430,4.962108 
	C1710.177124,9.870344 1710.151733,13.868102 1710.151611,17.865860 
	C1710.149902,500.620728 1710.156860,983.375610 1710.143188,1466.130493 
	C1710.140869,1547.420288 1710.049927,1628.710205 1710.000000,1710.000000 
	C1426.619995,1710.000000 1143.239990,1710.000000 858.930054,1709.088135 
	C858.000000,1139.450806 858.000000,570.725403 858.000000,2.000000 
z"/>
<path fill="#009E61" opacity="1.000000" stroke="none" 
	d="
M1710.922485,1710.000000 
	C1710.049927,1628.710205 1710.140869,1547.420288 1710.143188,1466.130493 
	C1710.156860,983.375610 1710.149902,500.620728 1710.151611,17.865860 
	C1710.151733,13.868102 1710.177124,9.870344 1710.693848,4.724610 
	C1711.613281,3.126698 1711.880859,2.601154 1712.000000,2.000000 
	C1995.263062,2.000000 2278.526123,2.000000 2561.894531,2.000000 
	C2561.894531,571.122070 2561.894531,1140.244141 2561.894531,1710.000000 
	C2278.615234,1710.000000 1995.230103,1710.000000 1710.922485,1710.000000 
z"/>
<path fill="#E7CC9C" opacity="1.000000" stroke="none" 
	d="
M857.500000,2.000000 
	C858.000000,570.725403 858.000000,1139.450806 858.000000,1709.088135 
	C858.000000,1710.000000 857.000000,1710.000000 856.500000,1710.000000 
	C856.000000,1141.274658 856.000000,572.549194 856.000000,2.911901 
	C856.000000,2.000000 857.000000,2.000000 857.500000,2.000000 
z"/>
<path fill="#35AD77" opacity="1.000000" stroke="none" 
	d="
M1711.500000,2.000000 
	C1711.880859,2.601154 1711.613281,3.126698 1710.818604,3.814131 
	C1710.300537,3.723882 1710.161011,3.396136 1710.010742,2.534194 
	C1710.000000,2.000000 1711.000000,2.000000 1711.500000,2.000000 
z"/>
</svg>