<svg version="1.1" id="Layer_1" xmlns="http://www.w3.org/2000/svg" xmlns:xlink="http://www.w3.org/1999/xlink" x="0px" y="0px"
	 width="100%" viewBox="0 0 1920 960" enable-background="new 0 0 1920 960" xml:space="preserve">
<path fill="#FED100" opacity="1.000000" stroke="none" 
	d="
M1921.000000,275.000000 
	C1921.000000,412.023315 1921.000000,549.046631 1920.543823,686.458557 
	C1917.754639,686.835876 1915.421509,686.814758 1913.088501,686.814758 
	C1369.787354,686.813293 826.486145,686.813538 283.184967,686.808655 
	C280.686554,686.808594 278.188110,686.737671 275.870422,686.417480 
	C276.831848,685.268677 277.575043,684.364807 278.398529,683.541199 
	C344.855713,617.076843 411.319824,550.619385 477.776215,484.154266 
	C478.791504,483.138794 479.718079,482.034576 481.442535,480.141266 
	C479.542999,478.689484 477.786987,477.636017 476.381561,476.231750 
	C411.072205,410.976318 345.792145,345.691620 280.517975,280.401001 
	C278.871643,278.754242 277.328796,277.004028 276.217041,275.256744 
	C279.196045,275.203125 281.695679,275.187592 284.195312,275.187592 
	C827.468201,275.186523 1370.741089,275.186768 1914.013916,275.178894 
	C1916.342651,275.178833 1918.671265,275.062225 1921.000000,275.000000 
M875.267700,621.761841 
	C902.740845,601.794312 930.242432,581.865601 957.641724,561.797180 
	C960.271240,559.871155 961.939514,559.990112 964.507935,561.881470 
	C982.605225,575.208252 1000.831299,588.360107 1019.018921,601.564209 
	C1031.505493,610.629333 1043.996460,619.688538 1057.207886,629.274597 
	C1056.540161,626.821167 1056.179077,625.231567 1055.676880,623.687927 
	C1044.518311,589.395386 1033.400146,555.089294 1022.089844,520.846802 
	C1020.903259,517.254578 1021.464172,515.320862 1024.570068,513.100586 
	C1045.561768,498.093903 1066.412964,482.890259 1087.294312,467.729218 
	C1096.903809,460.752136 1106.478516,453.727264 1117.111206,445.963013 
	C1113.963013,445.963013 1112.175903,445.963043 1110.388794,445.963043 
	C1074.732422,445.963043 1039.075928,445.897949 1003.420227,446.052307 
	C999.352600,446.069885 997.412842,445.110168 996.086670,440.936615 
	C985.216736,406.728088 974.052368,372.613037 962.964966,338.473724 
	C962.483582,336.991486 961.880798,335.548706 960.969543,333.110779 
	C960.060364,335.652405 959.486572,337.136871 958.995239,338.648071 
	C947.843628,372.942352 936.638916,407.219635 925.650635,441.566193 
	C924.525574,445.082977 922.970398,446.060028 919.397156,446.046417 
	C883.408081,445.909515 847.418396,445.963043 811.428833,445.963043 
	C809.712158,445.963043 807.995483,445.963013 805.072998,445.963013 
	C807.525330,447.815308 808.813110,448.820984 810.134155,449.780853 
	C839.091614,470.821838 868.017395,491.906799 897.064148,512.823730 
	C900.196960,515.079712 901.261108,516.909912 899.929565,520.859192 
	C892.549805,542.747437 885.481689,564.740967 878.337952,586.708557 
	C873.828430,600.575989 869.373352,614.461121 864.534973,629.450012 
	C868.554077,626.550293 871.608948,624.346252 875.267700,621.761841 
M1522.396118,583.048218 
	C1515.666382,562.344482 1509.011963,541.615662 1502.133057,520.961609 
	C1500.975586,517.485840 1501.281006,515.449585 1504.469238,513.170898 
	C1525.326050,498.264130 1546.021729,483.131775 1566.765625,468.067291 
	C1576.530151,460.976166 1586.285156,453.872070 1597.159302,445.963043 
	C1594.200439,445.963043 1592.610107,445.963043 1591.019775,445.963043 
	C1555.032593,445.963013 1519.045044,445.877228 1483.058960,446.080658 
	C1478.948364,446.103912 1477.364258,444.819000 1476.161011,441.059021 
	C1465.221436,406.874725 1454.088379,372.752350 1443.002075,338.615082 
	C1442.495850,337.056580 1441.895386,335.528748 1440.966064,332.954041 
	C1440.038818,335.529755 1439.556030,336.762543 1439.148193,338.019623 
	C1428.071289,372.160675 1416.897461,406.271149 1406.056396,440.486938 
	C1404.616455,445.031738 1402.553345,446.098724 1398.052246,446.073517 
	C1362.566040,445.874542 1327.078125,445.963043 1291.590820,445.963043 
	C1289.843506,445.963043 1288.096191,445.963013 1285.131836,445.963013 
	C1287.472656,447.754150 1288.716187,448.749146 1290.003174,449.684204 
	C1319.094971,470.819489 1348.158447,491.994141 1377.336914,513.009155 
	C1380.360107,515.186523 1381.193359,516.985535 1379.967773,520.691528 
	C1368.645630,554.927307 1357.544678,589.236328 1346.390625,623.527710 
	C1345.869873,625.128479 1345.454590,626.763611 1344.709106,629.362854 
	C1348.068481,626.938110 1350.496460,625.195923 1352.913818,623.439148 
	C1380.924805,603.082947 1408.972290,582.776855 1436.889282,562.292603 
	C1439.934692,560.057983 1441.921021,559.909363 1445.016113,562.199646 
	C1462.947510,575.468018 1481.046265,588.510132 1499.094849,601.619995 
	C1511.546875,610.664795 1524.009155,619.695374 1537.465576,629.456726 
	C1532.294800,613.431763 1527.509521,598.601501 1522.396118,583.048218 
z"/>
<path fill="#009739" opacity="1.000000" stroke="none" 
	d="
M1921.000000,274.538757 
	C1918.671265,275.062225 1916.342651,275.178833 1914.013916,275.178894 
	C1370.741089,275.186768 827.468201,275.186523 284.195312,275.187592 
	C281.695679,275.187592 279.196045,275.203125 275.938782,275.081726 
	C274.681702,274.512146 274.156250,274.098297 273.686554,273.628632 
	C183.846375,183.797546 94.008812,93.963844 4.193587,4.107818 
	C3.310186,3.224015 2.724614,2.042518 2.000000,1.000000 
	C641.543396,1.000000 1281.086792,1.000000 1921.000000,1.000000 
	C1921.000000,92.025497 1921.000000,183.051483 1921.000000,274.538757 
z"/>
<path fill="#009739" opacity="1.000000" stroke="none" 
	d="
M275.689697,686.699829 
	C278.188110,686.737671 280.686554,686.808594 283.184967,686.808655 
	C826.486145,686.813538 1369.787354,686.813293 1913.088501,686.814758 
	C1915.421509,686.814758 1917.754639,686.835876 1920.543823,686.923584 
	C1921.000000,778.315735 1921.000000,869.631470 1921.000000,961.000000 
	C1281.640869,961.000000 642.281677,961.000000 2.425985,960.652344 
	C2.712470,959.444763 3.461857,958.551147 4.283273,957.729614 
	C93.630287,868.372314 182.982010,779.019775 272.342865,689.676331 
	C273.396820,688.622498 274.571411,687.689331 275.689697,686.699829 
z"/>
<path fill="#EF3340" opacity="1.000000" stroke="none" 
	d="
M275.870422,686.417480 
	C274.571411,687.689331 273.396820,688.622498 272.342865,689.676331 
	C182.982010,779.019775 93.630287,868.372314 4.283273,957.729614 
	C3.461857,958.551147 2.712470,959.444763 1.964732,960.652344 
	C1.666670,960.833313 1.056204,960.684082 1.044460,960.497192 
	C0.960999,959.169128 1.000000,957.833313 1.000000,956.500000 
	C1.000000,638.000000 1.000000,319.500000 1.500000,1.000000 
	C2.724614,2.042518 3.310186,3.224015 4.193587,4.107818 
	C94.008812,93.963844 183.846375,183.797546 273.686554,273.628632 
	C274.156250,274.098297 274.681702,274.512146 275.459412,275.127075 
	C277.328796,277.004028 278.871643,278.754242 280.517975,280.401001 
	C345.792145,345.691620 411.072205,410.976318 476.381561,476.231750 
	C477.786987,477.636017 479.542999,478.689484 481.442535,480.141266 
	C479.718079,482.034576 478.791504,483.138794 477.776215,484.154266 
	C411.319824,550.619385 344.855713,617.076843 278.398529,683.541199 
	C277.575043,684.364807 276.831848,685.268677 275.870422,686.417480 
z"/>
<path fill="#010100" opacity="1.000000" stroke="none" 
	d="
M874.965759,621.952026 
	C871.608948,624.346252 868.554077,626.550293 864.534973,629.450012 
	C869.373352,614.461121 873.828430,600.575989 878.337952,586.708557 
	C885.481689,564.740967 892.549805,542.747437 899.929565,520.859192 
	C901.261108,516.909912 900.196960,515.079712 897.064148,512.823730 
	C868.017395,491.906799 839.091614,470.821838 810.134155,449.780853 
	C808.813110,448.820984 807.525330,447.815308 805.072998,445.963013 
	C807.995483,445.963013 809.712158,445.963043 811.428833,445.963043 
	C847.418396,445.963043 883.408081,445.909515 919.397156,446.046417 
	C922.970398,446.060028 924.525574,445.082977 925.650635,441.566193 
	C936.638916,407.219635 947.843628,372.942352 958.995239,338.648071 
	C959.486572,337.136871 960.060364,335.652405 960.969543,333.110779 
	C961.880798,335.548706 962.483582,336.991486 962.964966,338.473724 
	C974.052368,372.613037 985.216736,406.728088 996.086670,440.936615 
	C997.412842,445.110168 999.352600,446.069885 1003.420227,446.052307 
	C1039.075928,445.897949 1074.732422,445.963043 1110.388794,445.963043 
	C1112.175903,445.963043 1113.963013,445.963013 1117.111206,445.963013 
	C1106.478516,453.727264 1096.903809,460.752136 1087.294312,467.729218 
	C1066.412964,482.890259 1045.561768,498.093903 1024.570068,513.100586 
	C1021.464172,515.320862 1020.903259,517.254578 1022.089844,520.846802 
	C1033.400146,555.089294 1044.518311,589.395386 1055.676880,623.687927 
	C1056.179077,625.231567 1056.540161,626.821167 1057.207886,629.274597 
	C1043.996460,619.688538 1031.505493,610.629333 1019.018921,601.564209 
	C1000.831299,588.360107 982.605225,575.208252 964.507935,561.881470 
	C961.939514,559.990112 960.271240,559.871155 957.641724,561.797180 
	C930.242432,581.865601 902.740845,601.794312 874.965759,621.952026 
z"/>
<path fill="#010100" opacity="1.000000" stroke="none" 
	d="
M1522.560303,583.409729 
	C1527.509521,598.601501 1532.294800,613.431763 1537.465576,629.456726 
	C1524.009155,619.695374 1511.546875,610.664795 1499.094849,601.619995 
	C1481.046265,588.510132 1462.947510,575.468018 1445.016113,562.199646 
	C1441.921021,559.909363 1439.934692,560.057983 1436.889282,562.292603 
	C1408.972290,582.776855 1380.924805,603.082947 1352.913818,623.439148 
	C1350.496460,625.195923 1348.068481,626.938110 1344.709106,629.362854 
	C1345.454590,626.763611 1345.869873,625.128479 1346.390625,623.527710 
	C1357.544678,589.236328 1368.645630,554.927307 1379.967773,520.691528 
	C1381.193359,516.985535 1380.360107,515.186523 1377.336914,513.009155 
	C1348.158447,491.994141 1319.094971,470.819489 1290.003174,449.684204 
	C1288.716187,448.749146 1287.472656,447.754150 1285.131836,445.963013 
	C1288.096191,445.963013 1289.843506,445.963043 1291.590820,445.963043 
	C1327.078125,445.963043 1362.566040,445.874542 1398.052246,446.073517 
	C1402.553345,446.098724 1404.616455,445.031738 1406.056396,440.486938 
	C1416.897461,406.271149 1428.071289,372.160675 1439.148193,338.019623 
	C1439.556030,336.762543 1440.038818,335.529755 1440.966064,332.954041 
	C1441.895386,335.528748 1442.495850,337.056580 1443.002075,338.615082 
	C1454.088379,372.752350 1465.221436,406.874725 1476.161011,441.059021 
	C1477.364258,444.819000 1478.948364,446.103912 1483.058960,446.080658 
	C1519.045044,445.877228 1555.032593,445.963013 1591.019775,445.963043 
	C1592.610107,445.963043 1594.200439,445.963043 1597.159302,445.963043 
	C1586.285156,453.872070 1576.530151,460.976166 1566.765625,468.067291 
	C1546.021729,483.131775 1525.326050,498.264130 1504.469238,513.170898 
	C1501.281006,515.449585 1500.975586,517.485840 1502.133057,520.961609 
	C1509.011963,541.615662 1515.666382,562.344482 1522.560303,583.409729 
z"/>
</svg>